<svg width="116" height="35" viewBox="0 0 116 35" fill="none" xmlns="http://www.w3.org/2000/svg">
<g clip-path="url(#clip0_1_2)">
<path d="M12.024 6.496C13.336 6.496 14.4827 6.64 15.464 6.928C16.4453 7.216 17.2347 7.52 17.832 7.84C18.4293 8.16 18.792 8.37333 18.92 8.48L16.616 12.336C16.4453 12.208 16.152 12.0213 15.736 11.776C15.3307 11.5307 14.8453 11.312 14.28 11.12C13.7253 10.928 13.144 10.832 12.536 10.832C11.7147 10.832 11.048 10.9813 10.536 11.28C10.0347 11.568 9.784 12 9.784 12.576C9.784 12.9707 9.91733 13.328 10.184 13.648C10.4613 13.9573 10.8773 14.256 11.432 14.544C11.9973 14.8213 12.712 15.1253 13.576 15.456C14.3653 15.744 15.1067 16.0853 15.8 16.48C16.4933 16.8747 17.1013 17.344 17.624 17.888C18.1573 18.4213 18.5787 19.04 18.888 19.744C19.1973 20.448 19.352 21.248 19.352 22.144C19.352 23.2107 19.1333 24.1387 18.696 24.928C18.2587 25.7067 17.6613 26.352 16.904 26.864C16.1573 27.376 15.304 27.7547 14.344 28C13.3947 28.256 12.408 28.384 11.384 28.384C9.93333 28.384 8.632 28.2187 7.48 27.888C6.33867 27.5573 5.416 27.2 4.712 26.816C4.008 26.432 3.58667 26.176 3.448 26.048L5.832 22.032C5.96 22.128 6.20533 22.2827 6.568 22.496C6.94133 22.7093 7.39467 22.9333 7.928 23.168C8.46133 23.392 9.02667 23.584 9.624 23.744C10.232 23.904 10.8293 23.984 11.416 23.984C12.3973 23.984 13.1333 23.7973 13.624 23.424C14.1147 23.04 14.36 22.5387 14.36 21.92C14.36 21.4613 14.2053 21.0507 13.896 20.688C13.5867 20.3253 13.1227 19.984 12.504 19.664C11.8853 19.3333 11.112 18.9867 10.184 18.624C9.256 18.2507 8.38667 17.7973 7.576 17.264C6.776 16.7307 6.12533 16.064 5.624 15.264C5.12267 14.464 4.872 13.472 4.872 12.288C4.872 11.104 5.20267 10.08 5.864 9.216C6.536 8.34133 7.416 7.66933 8.504 7.2C9.60267 6.73067 10.776 6.496 12.024 6.496ZM34.4423 6.88H39.2263V19.856C39.2263 21.5947 38.8849 23.104 38.2023 24.384C37.5196 25.6533 36.5436 26.64 35.2743 27.344C34.0049 28.0373 32.4903 28.384 30.7303 28.384C28.9596 28.384 27.4343 28.0373 26.1543 27.344C24.8743 26.64 23.8929 25.6533 23.2103 24.384C22.5383 23.104 22.2023 21.5947 22.2023 19.856V6.88H26.9703V19.6C26.9703 20.56 27.1196 21.3707 27.4183 22.032C27.7276 22.6933 28.1649 23.1947 28.7303 23.536C29.2956 23.8667 29.9623 24.032 30.7303 24.032C31.4876 24.032 32.1436 23.8667 32.6983 23.536C33.2529 23.1947 33.6796 22.6933 33.9783 22.032C34.2876 21.3707 34.4423 20.56 34.4423 19.6V6.88ZM42.7373 6.88H47.5213V23.808H55.1853V28H42.7373V6.88Z" fill="#F0C808"/>
<path d="M67.82 8.28C68.23 8.28 68.5883 8.325 68.895 8.415C69.2017 8.505 69.4483 8.6 69.635 8.7C69.8217 8.8 69.935 8.86667 69.975 8.9L69.255 10.105C69.2017 10.065 69.11 10.0067 68.98 9.93C68.8533 9.85333 68.7017 9.785 68.525 9.725C68.3517 9.665 68.17 9.635 67.98 9.635C67.7233 9.635 67.515 9.68167 67.355 9.775C67.1983 9.865 67.12 10 67.12 10.18C67.12 10.3033 67.1617 10.415 67.245 10.515C67.3317 10.6117 67.4617 10.705 67.635 10.795C67.8117 10.8817 68.035 10.9767 68.305 11.08C68.5517 11.17 68.7833 11.2767 69 11.4C69.2167 11.5233 69.4067 11.67 69.57 11.84C69.7367 12.0067 69.8683 12.2 69.965 12.42C70.0617 12.64 70.11 12.89 70.11 13.17C70.11 13.5033 70.0417 13.7933 69.905 14.04C69.7683 14.2833 69.5817 14.485 69.345 14.645C69.1117 14.805 68.845 14.9233 68.545 15C68.2483 15.08 67.94 15.12 67.62 15.12C67.1667 15.12 66.76 15.0683 66.4 14.965C66.0433 14.8617 65.755 14.75 65.535 14.63C65.315 14.51 65.1833 14.43 65.14 14.39L65.885 13.135C65.925 13.165 66.0017 13.2133 66.115 13.28C66.2317 13.3467 66.3733 13.4167 66.54 13.49C66.7067 13.56 66.8833 13.62 67.07 13.67C67.26 13.72 67.4467 13.745 67.63 13.745C67.9367 13.745 68.1667 13.6867 68.32 13.57C68.4733 13.45 68.55 13.2933 68.55 13.1C68.55 12.9567 68.5017 12.8283 68.405 12.715C68.3083 12.6017 68.1633 12.495 67.97 12.395C67.7767 12.2917 67.535 12.1833 67.245 12.07C66.955 11.9533 66.6833 11.8117 66.43 11.645C66.18 11.4783 65.9767 11.27 65.82 11.02C65.6633 10.77 65.585 10.46 65.585 10.09C65.585 9.72 65.6883 9.4 65.895 9.13C66.105 8.85667 66.38 8.64667 66.72 8.5C67.0633 8.35333 67.43 8.28 67.82 8.28ZM72.3557 11.695C72.3557 12.0717 72.4324 12.4133 72.5857 12.72C72.7424 13.0233 72.9574 13.265 73.2307 13.445C73.5074 13.625 73.8274 13.715 74.1907 13.715C74.554 13.715 74.8724 13.625 75.1457 13.445C75.4224 13.265 75.6374 13.0233 75.7907 12.72C75.9474 12.4133 76.0257 12.0717 76.0257 11.695C76.0257 11.3183 75.9474 10.9783 75.7907 10.675C75.6374 10.3717 75.4224 10.13 75.1457 9.95C74.8724 9.76667 74.554 9.675 74.1907 9.675C73.8274 9.675 73.5074 9.76667 73.2307 9.95C72.9574 10.13 72.7424 10.3717 72.5857 10.675C72.4324 10.9783 72.3557 11.3183 72.3557 11.695ZM70.8007 11.695C70.8007 11.215 70.8857 10.7683 71.0557 10.355C71.2257 9.93833 71.464 9.575 71.7707 9.265C72.0774 8.955 72.4374 8.71333 72.8507 8.54C73.264 8.36667 73.7107 8.28 74.1907 8.28C74.6774 8.28 75.1257 8.36667 75.5357 8.54C75.949 8.71333 76.3074 8.955 76.6107 9.265C76.9174 9.575 77.154 9.93833 77.3207 10.355C77.4907 10.7683 77.5757 11.215 77.5757 11.695C77.5757 12.1783 77.494 12.6283 77.3307 13.045C77.1674 13.4583 76.934 13.8217 76.6307 14.135C76.3274 14.445 75.969 14.6867 75.5557 14.86C75.1424 15.0333 74.6874 15.12 74.1907 15.12C73.684 15.12 73.2224 15.0333 72.8057 14.86C72.3924 14.6867 72.0357 14.445 71.7357 14.135C71.4357 13.8217 71.204 13.4583 71.0407 13.045C70.8807 12.6283 70.8007 12.1783 70.8007 11.695ZM78.4726 8.4H82.2876V9.71H79.9676V11.04H82.1126V12.345H79.9676V15H78.4726V8.4ZM84.4673 9.71H82.8923V8.4H87.5323V9.71H85.9623V15H84.4673V9.71ZM95.0949 15H93.2999L92.1799 10.395H92.4499L91.3299 15H89.5249L88.0199 8.4H89.7349L90.5299 13.03H90.5099L91.7499 8.4H92.8749L94.1199 13.03H94.0999L94.8949 8.4H96.6099L95.0949 15ZM98.9905 8.4H100.476L103.081 15H101.486L101.006 13.675H98.4655L97.9805 15H96.3805L98.9905 8.4ZM98.9655 12.365H100.511L99.7455 10.2H99.7305L98.9655 12.365ZM103.578 8.4H106.268C106.652 8.4 106.993 8.48 107.293 8.64C107.593 8.8 107.83 9.03167 108.003 9.335C108.18 9.635 108.268 9.99333 108.268 10.41C108.268 10.8267 108.193 11.1683 108.043 11.435C107.897 11.6983 107.72 11.8967 107.513 12.03C107.307 12.16 107.115 12.2383 106.938 12.265L108.543 15H106.863L105.433 12.38H105.073V15H103.578V8.4ZM105.073 11.345H105.733C106 11.345 106.233 11.28 106.433 11.15C106.633 11.02 106.733 10.79 106.733 10.46C106.733 10.13 106.635 9.90167 106.438 9.775C106.242 9.645 106.01 9.58 105.743 9.58H105.073V11.345ZM109.526 8.4H113.741V9.71H111.016V11.055H113.716V12.325H111.016V13.69H113.741V15H109.526V8.4ZM65.415 19.4H69.63V20.71H66.905V22.055H69.605V23.325H66.905V24.69H69.63V26H65.415V19.4ZM72.1418 20.77L72.2518 20.79V26H70.7568V19.4H72.7968L75.4718 24.6L75.3618 24.62V19.4H76.8568V26H74.8068L72.1418 20.77ZM81.1134 22.31H84.4784V22.73C84.4784 23.2033 84.3984 23.645 84.2384 24.055C84.0817 24.465 83.8567 24.825 83.5634 25.135C83.27 25.445 82.92 25.6867 82.5134 25.86C82.1067 26.0333 81.6567 26.12 81.1634 26.12C80.6534 26.12 80.19 26.0333 79.7734 25.86C79.36 25.6833 79.0034 25.4383 78.7034 25.125C78.4034 24.8117 78.1734 24.4483 78.0134 24.035C77.8534 23.6183 77.7734 23.1717 77.7734 22.695C77.7734 22.2217 77.8534 21.7783 78.0134 21.365C78.1734 20.9483 78.4034 20.585 78.7034 20.275C79.0034 19.9617 79.36 19.7183 79.7734 19.545C80.19 19.3683 80.6534 19.28 81.1634 19.28C81.58 19.28 81.9467 19.325 82.2634 19.415C82.5834 19.505 82.8584 19.625 83.0884 19.775C83.3184 19.925 83.5134 20.09 83.6734 20.27C83.8334 20.4467 83.9667 20.62 84.0734 20.79L82.6534 21.46C82.5167 21.25 82.33 21.0667 82.0934 20.91C81.86 20.7533 81.55 20.675 81.1634 20.675C80.8934 20.675 80.645 20.7283 80.4184 20.835C80.195 20.9417 80.0017 21.0883 79.8384 21.275C79.675 21.4583 79.5484 21.6733 79.4584 21.92C79.3717 22.1633 79.3284 22.4217 79.3284 22.695C79.3284 22.9717 79.3717 23.2317 79.4584 23.475C79.5484 23.7183 79.675 23.9333 79.8384 24.12C80.0017 24.3067 80.195 24.4533 80.4184 24.56C80.645 24.6633 80.8934 24.715 81.1634 24.715C81.4 24.715 81.615 24.685 81.8084 24.625C82.0017 24.565 82.1684 24.4783 82.3084 24.365C82.4517 24.2517 82.5634 24.1183 82.6434 23.965C82.7267 23.8083 82.7767 23.6367 82.7934 23.45H81.1134V22.31ZM85.3919 19.4H86.8869V26H85.3919V19.4ZM89.427 20.77L89.537 20.79V26H88.042V19.4H90.082L92.757 24.6L92.647 24.62V19.4H94.142V26H92.092L89.427 20.77ZM95.2685 19.4H99.4835V20.71H96.7585V22.055H99.4585V23.325H96.7585V24.69H99.4835V26H95.2685V19.4ZM100.61 19.4H104.825V20.71H102.1V22.055H104.8V23.325H102.1V24.69H104.825V26H100.61V19.4ZM105.922 19.4H108.612C108.995 19.4 109.337 19.48 109.637 19.64C109.937 19.8 110.174 20.0317 110.347 20.335C110.524 20.635 110.612 20.9933 110.612 21.41C110.612 21.8267 110.537 22.1683 110.387 22.435C110.24 22.6983 110.064 22.8967 109.857 23.03C109.65 23.16 109.459 23.2383 109.282 23.265L110.887 26H109.207L107.777 23.38H107.417V26H105.922V19.4ZM107.417 22.345H108.077C108.344 22.345 108.577 22.28 108.777 22.15C108.977 22.02 109.077 21.79 109.077 21.46C109.077 21.13 108.979 20.9017 108.782 20.775C108.585 20.645 108.354 20.58 108.087 20.58H107.417V22.345Z" fill="white"/>
<rect width="1" height="26" transform="matrix(-1 0 0 1 60 5)" fill="white"/>
</g>
<defs>
<clipPath id="clip0_1_2">
<rect width="116" height="35" fill="white"/>
</clipPath>
</defs>
</svg>
