<svg xmlns="http://www.w3.org/2000/svg" xmlns:xlink="http://www.w3.org/1999/xlink" fill="#000000" height="800" width="800" viewBox="0 0 503.607 503.607" xmlns:v="https://vecta.io/nano"><path d="M251.8 235.016c-74.047 0-134.295 60.248-134.295 134.295S177.753 503.607 251.8 503.607c74.055 0 134.295-60.248 134.295-134.295S325.855 235.016 251.8 235.016zm-31.635 21.236c-12.095 14.588-21.747 29.965-28.84 45.912H155.51c15.402-22.024 38.14-38.476 64.655-45.912zm-74.374 62.699h39.08c-4.457 13.69-7.109 27.724-7.856 41.967H134.72a116.55 116.55 0 0 1 11.071-41.967zm-11.071 58.754h42.278c.747 14.219 3.433 28.252 7.923 41.967h-39.13a116.55 116.55 0 0 1-11.071-41.967zm20.79 58.754h35.899c7.109 15.914 16.779 31.299 28.882 45.946-26.565-7.42-49.354-23.888-64.781-45.946zm87.896 46.516c-13.95-14.722-25.088-30.309-33.238-46.517h33.238v46.517zm0-63.303h-40.582c-5.044-13.706-7.949-27.749-8.788-41.967h49.37v41.967zm0-58.754h-49.379a146.79 146.79 0 0 1 8.704-41.967h40.675v41.967zm0-58.754H210.05c8.158-16.283 19.338-31.895 33.356-46.567v46.567zm16.787-47.104c14.26 14.831 25.617 30.619 33.876 47.104h-33.876V255.06zm0 63.891h41.195a146.47 146.47 0 0 1 8.696 41.967h-49.891v-41.967zm0 58.754h49.891c-.839 14.219-3.743 28.261-8.788 41.967h-41.103v-41.967zm0 58.754h33.758c-8.251 16.409-19.557 32.181-33.758 47.062v-47.062zm23.771 45.778c12.036-14.596 21.663-29.923 28.747-45.778h35.387c-15.301 21.882-37.838 38.274-64.134 45.778zm73.845-62.565h-38.618c4.499-13.715 7.176-27.749 7.932-41.967h41.766c-1.066 14.94-4.928 29.083-11.08 41.967zm11.079-58.754h-41.783c-.747-14.244-3.399-28.278-7.856-41.967h38.559c6.153 12.884 10.015 27.027 11.08 41.967zm-56.093-58.754c-7.067-15.889-16.669-31.207-28.706-45.744 26.238 7.521 48.732 23.896 64.008 45.744h-35.302z"/><use xlink:href="#B"/><use xlink:href="#B" x="-75.541"/><use xlink:href="#B" x="75.541"/><path d="M479.501 0H24.106C10.819 0 0 10.819 0 24.106v76.615h503.607V24.106C503.607 10.819 492.787 0 479.501 0zM58.754 92.328c-18.516 0-33.574-15.058-33.574-33.574S40.238 25.18 58.754 25.18s33.574 15.058 33.574 33.574S77.27 92.328 58.754 92.328zm75.541 0c-18.516 0-33.574-15.058-33.574-33.574s15.058-33.574 33.574-33.574 33.574 15.058 33.574 33.574-15.058 33.574-33.574 33.574zm75.541 0c-18.516 0-33.574-15.058-33.574-33.574S191.32 25.18 209.836 25.18s33.574 15.058 33.574 33.574-15.058 33.574-33.574 33.574zM0 350.951c0 14.756 12.003 26.758 26.758 26.758h74.391c-.159-2.803-.428-5.565-.428-8.393 0-83.313 67.777-151.09 151.082-151.09s151.082 67.777 151.082 151.09c0 2.829-.269 5.59-.428 8.393h74.399c14.747 0 26.75-12.003 26.75-26.758V117.512H0v233.439z"/><defs ><path id="B" d="M134.295 41.967c-9.258 0-16.787 7.529-16.787 16.787s7.529 16.787 16.787 16.787 16.787-7.529 16.787-16.787-7.529-16.787-16.787-16.787z"/></defs></svg>