<svg xmlns="http://www.w3.org/2000/svg" width="116" height="35" fill="none" xmlns:v="https://vecta.io/nano"><g clip-path="url(#A)" fill="#000"><path d="M12.024 6.496c1.312 0 2.459.144 3.44.432s1.771.592 2.368.912l1.088.64-2.304 3.856a10.64 10.64 0 0 0-.88-.56 7.45 7.45 0 0 0-1.456-.656c-.555-.192-1.136-.288-1.744-.288-.821 0-1.488.149-2 .448a1.4 1.4 0 0 0-.752 1.296 1.63 1.63 0 0 0 .4 1.072c.277.309.693.608 1.248.896.565.277 1.28.581 2.144.912A14.6 14.6 0 0 1 15.8 16.48c.693.395 1.301.864 1.824 1.408a6.03 6.03 0 0 1 1.264 1.856c.309.704.464 1.504.464 2.4 0 1.067-.219 1.995-.656 2.784a5.65 5.65 0 0 1-1.792 1.936A7.97 7.97 0 0 1 14.344 28a11.32 11.32 0 0 1-2.96.384c-1.451 0-2.752-.165-3.904-.496-1.141-.331-2.064-.688-2.768-1.072l-1.264-.768 2.384-4.016c.128.096.373.251.736.464.373.213.827.437 1.36.672.533.224 1.099.416 1.696.576a7.02 7.02 0 0 0 1.792.24c.981 0 1.717-.187 2.208-.56a1.82 1.82 0 0 0 .736-1.504c0-.459-.155-.869-.464-1.232s-.773-.704-1.392-1.024c-.619-.331-1.392-.677-2.32-1.04a14.74 14.74 0 0 1-2.608-1.36c-.8-.533-1.451-1.2-1.952-2s-.752-1.792-.752-2.976.331-2.208.992-3.072c.672-.875 1.552-1.547 2.64-2.016 1.099-.469 2.272-.704 3.52-.704zm22.418.384h4.784v12.976c0 1.739-.341 3.248-1.024 4.528a7.25 7.25 0 0 1-2.928 2.96c-1.269.693-2.784 1.04-4.544 1.04-1.771 0-3.296-.347-4.576-1.04a7.22 7.22 0 0 1-2.944-2.96c-.672-1.28-1.008-2.789-1.008-4.528V6.88h4.768V19.6c0 .96.149 1.771.448 2.432.309.661.747 1.163 1.312 1.504.565.331 1.232.496 2 .496.757 0 1.413-.165 1.968-.496.555-.341.981-.843 1.28-1.504.309-.661.464-1.472.464-2.432V6.88zm8.295 0h4.784v16.928h7.664V28H42.737V6.88zm25.083 1.4c.41 0 .768.045 1.075.135s.553.185.74.285l.34.2-.72 1.205c-.053-.04-.145-.098-.275-.175a2.32 2.32 0 0 0-.455-.205c-.173-.06-.355-.09-.545-.09-.257 0-.465.047-.625.14s-.235.225-.235.405a.51.51 0 0 0 .125.335c.087.097.217.19.39.28s.4.182.67.285c.247.09.478.197.695.32s.407.27.57.44a2 2 0 0 1 .395.58c.097.22.145.47.145.75 0 .333-.068.623-.205.87s-.323.445-.56.605-.5.278-.8.355a3.69 3.69 0 0 1-.925.12c-.453 0-.86-.052-1.22-.155s-.645-.215-.865-.335l-.395-.24.745-1.255a2.91 2.91 0 0 0 .23.145 4.59 4.59 0 0 0 .425.21 4.12 4.12 0 0 0 .53.18c.19.05.377.075.56.075.307 0 .537-.058.69-.175a.57.57 0 0 0 .23-.47c0-.143-.048-.272-.145-.385a1.43 1.43 0 0 0-.435-.32 6.84 6.84 0 0 0-.725-.325c-.29-.113-.562-.258-.815-.425a2.06 2.06 0 0 1-.61-.625c-.157-.25-.235-.56-.235-.93s.103-.69.31-.96.485-.483.825-.63a2.77 2.77 0 0 1 1.1-.22zm4.536 3.415a2.26 2.26 0 0 0 .23 1.025c.157.303.372.545.645.725a1.72 1.72 0 0 0 .96.27c.363 0 .682-.09.955-.27s.492-.422.645-.725a2.22 2.22 0 0 0 .235-1.025 2.19 2.19 0 0 0-.235-1.02c-.153-.303-.368-.545-.645-.725a1.71 1.71 0 0 0-.955-.275c-.363 0-.683.092-.96.275s-.488.422-.645.725a2.23 2.23 0 0 0-.23 1.02zm-1.555 0c0-.48.085-.927.255-1.34a3.31 3.31 0 0 1 .715-1.09c.307-.31.667-.552 1.08-.725a3.43 3.43 0 0 1 1.34-.26 3.42 3.42 0 0 1 1.345.26 3.24 3.24 0 0 1 1.075.725c.307.31.543.673.71 1.09a3.56 3.56 0 0 1 .255 1.34c0 .48-.082.933-.245 1.35s-.397.777-.7 1.09a3.19 3.19 0 0 1-1.075.725c-.413.173-.868.26-1.365.26-.507 0-.968-.087-1.385-.26s-.77-.415-1.07-.725a3.29 3.29 0 0 1-.695-1.09c-.163-.413-.24-.867-.24-1.35zM78.473 8.4h3.815v1.31h-2.32v1.33h2.145v1.305h-2.145V15h-1.495V8.4zm5.995 1.31h-1.575V8.4h4.64v1.31h-1.57V15h-1.495V9.71zM95.095 15H93.3l-1.12-4.605h.27L91.33 15h-1.805L88.02 8.4h1.715l.795 4.63h-.02l1.24-4.63h1.125l1.245 4.63h-.02l.795-4.63h1.715L95.095 15zm3.896-6.6h1.486l2.605 6.6h-1.595l-.48-1.325h-2.54L97.981 15h-1.6l2.61-6.6zm-.025 3.965h1.545l-.765-2.165h-.015l-.765 2.165zm4.612-3.965h2.69c.384 0 .725.08 1.025.24a1.76 1.76 0 0 1 .71.695c.173.303.265.658.265 1.075s-.075.758-.225 1.025-.323.462-.53.595-.398.208-.575.235L108.543 15h-1.68l-1.43-2.62h-.36V15h-1.495V8.4zm1.495 2.945h.66c.267 0 .5-.065.7-.195s.3-.36.3-.69-.098-.558-.295-.685-.428-.195-.695-.195h-.67v1.765zm4.453-2.945h4.215v1.31h-2.725v1.345h2.7v1.27h-2.7v1.365h2.725V15h-4.215V8.4zm-44.111 11h4.215v1.31h-2.725v1.345h2.7v1.27h-2.7v1.365h2.725V26h-4.215v-6.6zm6.727 1.37l.11.02V26h-1.495v-6.6h2.04l2.675 5.2-.11.02V19.4h1.495V26h-2.05l-2.665-5.23zm8.972 1.54h3.365v.42c0 .473-.08.915-.24 1.325s-.382.77-.675 1.08a3.09 3.09 0 0 1-1.05.725 3.41 3.41 0 0 1-1.35.26c-.51 0-.973-.087-1.39-.26a3.21 3.21 0 0 1-1.07-.735 3.26 3.26 0 0 1-.69-1.09c-.16-.417-.24-.863-.24-1.34s.08-.917.24-1.33a3.23 3.23 0 0 1 .69-1.09 3.15 3.15 0 0 1 1.07-.73c.417-.177.88-.265 1.39-.265.417 0 .783.045 1.1.135s.595.21.825.36.425.315.585.495a3.76 3.76 0 0 1 .4.52l-1.42.67a1.92 1.92 0 0 0-.56-.55c-.233-.157-.543-.235-.93-.235-.27 0-.518.053-.745.16s-.417.253-.58.44a2.02 2.02 0 0 0-.38.645 2.29 2.29 0 0 0-.13.775c0 .277.043.537.13.78a2.05 2.05 0 0 0 .38.645c.163.187.357.333.58.44s.475.155.745.155a2.17 2.17 0 0 0 .645-.09c.193-.06.36-.147.5-.26a1.28 1.28 0 0 0 .335-.4 1.34 1.34 0 0 0 .15-.515h-1.68v-1.14zm4.279-2.91h1.495V26h-1.495v-6.6zm4.035 1.37l.11.02V26h-1.495v-6.6h2.04l2.675 5.2-.11.02V19.4h1.495V26h-2.05l-2.665-5.23zm5.841-1.37h4.215v1.31h-2.725v1.345h2.7v1.27h-2.7v1.365h2.725V26h-4.215v-6.6zm5.341 0h4.215v1.31H102.1v1.345h2.7v1.27h-2.7v1.365h2.725V26h-4.215v-6.6zm5.312 0h2.69c.383 0 .725.08 1.025.24a1.76 1.76 0 0 1 .71.695c.173.303.265.658.265 1.075s-.075.758-.225 1.025-.323.462-.53.595-.398.208-.575.235L110.887 26h-1.68l-1.43-2.62h-.36V26h-1.495v-6.6zm1.495 2.945h.66c.267 0 .5-.065.7-.195s.3-.36.3-.69-.098-.558-.295-.685a1.23 1.23 0 0 0-.695-.195h-.67v1.765zM60 5h-1v26h1z"/></g><defs><clipPath id="A"><path fill="#fff" d="M0 0h116v35H0z"/></clipPath></defs></svg>